<svg width="24" height="24" viewBox="0 0 24 24" fill="none" xmlns="http://www.w3.org/2000/svg" data-reactroot="">
<path fill="#f7f7fa" d="M20 12V21C20 21.55 19.55 22 19 22H3C2.45 22 2 21.55 2 21V5C2 4.45 2.45 4 3 4H12" undefined="1"></path>
<path stroke-linejoin="round" stroke-linecap="round" stroke-miterlimit="10" stroke-width="1" stroke="#221b38" d="M20 12V21C20 21.55 19.55 22 19 22H3C2.45 22 2 21.55 2 21V5C2 4.45 2.45 4 3 4H12"></path>
<path stroke-linejoin="round" stroke-linecap="round" stroke-miterlimit="10" stroke-width="1" stroke="#221b38" fill="#f7f7fa" d="M19.15 2.38001L9.24 12.29L8 16L11.71 14.76L21.62 4.85001C22.07 4.40001 22.13 3.71001 21.74 3.32001L20.68 2.26001C20.29 1.87001 19.6 1.92001 19.15 2.38001Z"></path>
</svg>
