<?xml version="1.0" encoding="UTF-8"?>
<svg version="1.1" xmlns="http://www.w3.org/2000/svg" width="512" height="512">
<path d="M0 0 C7.60515263 5.98393566 14.32028183 13.18118591 21.14111328 20.02758789 C22.21625108 21.10300855 23.29161068 22.17820751 24.36717224 23.25320435 C27.25509373 26.14084169 30.13994545 29.03152757 33.02421045 31.92281651 C36.05061373 34.95551774 39.07989407 37.98534253 42.1088562 41.01548767 C47.83021522 46.73994116 53.54902278 52.46693644 59.26689327 58.19487423 C65.78253968 64.72174063 72.30106315 71.24573046 78.81981683 77.76949322 C92.21639038 91.17648845 105.609389 104.58704963 119 118 C119.00586624 117.03613373 119.01173248 116.07226746 119.01777649 115.07919312 C119.07504172 105.98632221 119.14782322 96.89368958 119.23571491 87.80106163 C119.28040231 83.12666937 119.31966204 78.45236394 119.34643555 73.77783203 C119.37248479 69.26486078 119.41289867 64.75222396 119.46318626 60.23945999 C119.47984402 58.51956982 119.4913651 56.79962181 119.49761391 55.07966232 C119.50726699 52.6665229 119.53533972 50.25423692 119.56762695 47.84130859 C119.56619186 47.13352264 119.56475677 46.42573669 119.5632782 45.69650269 C119.66609395 40.2470199 120.99956511 36.16865328 124.71875 32.13671875 C125.3065625 31.65847656 125.894375 31.18023437 126.5 30.6875 C127.0878125 30.19636719 127.675625 29.70523438 128.28125 29.19921875 C132.67467514 26.13380621 137.8798715 26.47583254 143 27 C148.69668594 28.54736971 152.00457182 31.51094959 154.97443962 36.51908684 C157.0098437 41.44289324 156.68292383 46.56971035 156.63110352 51.82250977 C156.64183647 53.72397263 156.64183647 53.72397263 156.65278625 55.66384888 C156.67121116 59.12061641 156.65842011 62.57660702 156.63869596 66.03334165 C156.62223717 69.66155383 156.63113219 73.2897196 156.63621521 76.91795349 C156.64072758 83.00817184 156.6249185 89.0980822 156.59692383 95.18823242 C156.56486113 102.21732457 156.56489587 109.24586187 156.5821386 116.27499348 C156.59803112 123.05390756 156.59125364 129.83261929 156.57420158 136.61152458 C156.56735052 139.48898684 156.56834333 142.36628595 156.57574654 145.2437458 C156.58486746 149.26510287 156.56081582 153.28561056 156.53344727 157.30688477 C156.54323608 159.08770195 156.54323608 159.08770195 156.55322266 160.90449524 C156.47702342 167.49363382 155.97528137 171.66343225 152 177 C147.67200752 181.01131011 144.53970022 182.11986637 138.71980286 182.15390015 C137.62498596 182.16250061 136.53016907 182.17110107 135.4021759 182.17996216 C134.20058334 182.18422211 132.99899078 182.18848206 131.76098633 182.19287109 C129.86302811 182.20513733 129.86302811 182.20513733 127.92672729 182.21765137 C123.72851688 182.24384498 119.53029663 182.2591782 115.33203125 182.2734375 C113.88503196 182.27879863 112.43803273 182.28417614 110.99103355 182.28956985 C104.96978653 182.31119634 98.94854215 182.32993119 92.92726612 182.34119225 C84.3081696 182.35741949 75.68952471 182.39056951 67.07059842 182.44759309 C61.00507032 182.4863496 54.93966272 182.50583176 48.87401408 182.51111281 C45.25407409 182.51475906 41.63461609 182.52670131 38.01481056 182.55921555 C33.97159808 182.59501229 29.92935059 182.59091095 25.88598633 182.58349609 C24.69451492 182.59990143 23.50304352 182.61630676 22.27546692 182.63320923 C15.35668924 182.58130834 10.20466883 181.84069478 5 177 C0.8511457 171.43773732 0.08281931 165.81006665 1 159 C2.78015739 153.5548127 6.388261 150.21773607 11 147 C14.55340652 145.81553116 17.80082447 145.82431247 21.50073242 145.79467773 C22.26194901 145.78477814 23.02316559 145.77487854 23.80744934 145.76467896 C26.32342418 145.73309271 28.83941789 145.70831791 31.35546875 145.68359375 C33.09996532 145.66302174 34.84445693 145.6420252 36.58894348 145.62062073 C41.18053167 145.56542558 45.77216465 145.51600501 50.36383057 145.46777344 C55.04923489 145.41753976 59.73457417 145.36186343 64.41992188 145.30664062 C73.61322568 145.19909032 82.80658596 145.09763838 92 145 C91.40585423 144.40769781 90.81170845 143.81539562 90.19955826 143.20514488 C75.73851876 128.78828707 61.28302824 114.36588613 46.83368301 99.93730736 C39.84593836 92.9598723 32.85633262 85.98432089 25.86230469 79.01318359 C19.7658399 72.93666232 13.67290688 66.85662562 7.58417678 60.77235377 C4.36056764 57.55135036 1.13522568 54.33212654 -2.09435272 51.11710739 C-5.13558475 48.08947438 -8.17206369 45.05715422 -11.20500183 42.02121353 C-12.31745511 40.90930937 -13.43161674 39.7991113 -14.54763031 38.69078064 C-16.07483382 37.17357463 -17.59568668 35.65026465 -19.11517334 34.12533569 C-19.96691006 33.27544256 -20.81864677 32.42554943 -21.6961937 31.54990196 C-26.86298463 25.83118754 -29.3810183 21.07127953 -29.28125 13.4140625 C-28.66826855 8.15263835 -26.30713892 4.27362253 -22.5625 0.625 C-14.79131324 -4.30306965 -8.02587291 -4.40946222 0 0 Z " fill="#000000" transform="translate(356,330)"/>
<path d="M0 0 C4.24149069 2.39479792 6.58390385 5.32602694 8.9375 9.5625 C10.78331454 16.33048666 10.05301253 21.18676981 6.6875 27.3125 C0.70356434 34.91765263 -6.49368591 41.63278183 -13.34008789 48.45361328 C-14.41550855 49.52875108 -15.49070751 50.60411068 -16.56570435 51.67967224 C-19.45334169 54.56759373 -22.34402757 57.45244545 -25.23531651 60.33671045 C-28.26801774 63.36311373 -31.29784253 66.39239407 -34.32798767 69.4213562 C-40.05244116 75.14271522 -45.77943644 80.86152278 -51.50737423 86.57939327 C-58.03424063 93.09503968 -64.55823046 99.61356315 -71.08199322 106.13231683 C-84.48898845 119.52889038 -97.89954963 132.921889 -111.3125 146.3125 C-109.86670059 146.32129936 -109.86670059 146.32129936 -108.39169312 146.33027649 C-99.29882221 146.38754172 -90.20618958 146.46032322 -81.11356163 146.54821491 C-76.43916937 146.59290231 -71.76486394 146.63216204 -67.09033203 146.65893555 C-62.57736078 146.68498479 -58.06472396 146.72539867 -53.55195999 146.77568626 C-51.83206982 146.79234402 -50.11212181 146.8038651 -48.39216232 146.81011391 C-45.9790229 146.81976699 -43.56673692 146.84783972 -41.15380859 146.88012695 C-40.44602264 146.87869186 -39.73823669 146.87725677 -39.00900269 146.8757782 C-33.5595199 146.97859395 -29.48115328 148.31206511 -25.44921875 152.03125 C-24.97097656 152.6190625 -24.49273437 153.206875 -24 153.8125 C-23.50886719 154.4003125 -23.01773438 154.988125 -22.51171875 155.59375 C-19.44630621 159.98717514 -19.78833254 165.1923715 -20.3125 170.3125 C-21.85986971 176.00918594 -24.82344959 179.31707182 -29.83158684 182.28693962 C-34.75539324 184.3223437 -39.88221035 183.99542383 -45.13500977 183.94360352 C-46.40265167 183.95075882 -47.67029358 183.95791412 -48.97634888 183.96528625 C-52.43311641 183.98371116 -55.88910702 183.97092011 -59.34584165 183.95119596 C-62.97405383 183.93473717 -66.6022196 183.94363219 -70.23045349 183.94871521 C-76.32067184 183.95322758 -82.4105822 183.9374185 -88.50073242 183.90942383 C-95.52982457 183.87736113 -102.55836187 183.87739587 -109.58749348 183.8946386 C-116.36640756 183.91053112 -123.14511929 183.90375364 -129.92402458 183.88670158 C-132.80148684 183.87985052 -135.67878595 183.88084333 -138.5562458 183.88824654 C-142.57760287 183.89736746 -146.59811056 183.87331582 -150.61938477 183.84594727 C-151.80659622 183.85247314 -152.99380768 183.85899902 -154.21699524 183.86572266 C-160.80613382 183.78952342 -164.97593225 183.28778137 -170.3125 179.3125 C-174.32381011 174.98450752 -175.43236637 171.85220022 -175.46640015 166.03230286 C-175.47500061 164.93748596 -175.48360107 163.84266907 -175.49246216 162.7146759 C-175.49672211 161.51308334 -175.50098206 160.31149078 -175.50537109 159.07348633 C-175.51354858 157.80818085 -175.52172607 156.54287537 -175.53015137 155.23922729 C-175.55634498 151.04101688 -175.5716782 146.84279663 -175.5859375 142.64453125 C-175.59129863 141.19753196 -175.59667614 139.75053273 -175.60206985 138.30353355 C-175.62369634 132.28228653 -175.64243119 126.26104215 -175.65369225 120.23976612 C-175.66991949 111.6206696 -175.70306951 103.00202471 -175.76009309 94.38309842 C-175.7988496 88.31757032 -175.81833176 82.25216272 -175.82361281 76.18651408 C-175.82725906 72.56657409 -175.83920131 68.94711609 -175.87171555 65.32731056 C-175.90751229 61.28409808 -175.90341095 57.24185059 -175.89599609 53.19848633 C-175.91240143 52.00701492 -175.92880676 50.81554352 -175.94570923 49.58796692 C-175.89380834 42.66918924 -175.15319478 37.51716883 -170.3125 32.3125 C-164.75023732 28.1636457 -159.12256665 27.39531931 -152.3125 28.3125 C-146.8673127 30.09265739 -143.53023607 33.700761 -140.3125 38.3125 C-139.12803116 41.86590652 -139.13681247 45.11332447 -139.10717773 48.81323242 C-139.09727814 49.57444901 -139.08737854 50.33566559 -139.07717896 51.11994934 C-139.04559271 53.63592418 -139.02081791 56.15191789 -138.99609375 58.66796875 C-138.97552174 60.41246532 -138.9545252 62.15695693 -138.93312073 63.90144348 C-138.87792558 68.49303167 -138.82850501 73.08466465 -138.78027344 77.67633057 C-138.73003976 82.36173489 -138.67436343 87.04707417 -138.61914062 91.73242188 C-138.51159032 100.92572568 -138.41013838 110.11908596 -138.3125 119.3125 C-137.72019781 118.71835423 -137.12789562 118.12420845 -136.51764488 117.51205826 C-122.10078707 103.05101876 -107.67838613 88.59552824 -93.24980736 74.14618301 C-86.2723723 67.15843836 -79.29682089 60.16883262 -72.32568359 53.17480469 C-66.24916232 47.0783399 -60.16912562 40.98540688 -54.08485377 34.89667678 C-50.86385036 31.67306764 -47.64462654 28.44772568 -44.42960739 25.21814728 C-41.40197438 22.17691525 -38.36965422 19.14043631 -35.33371353 16.10749817 C-34.22180937 14.99504489 -33.1116113 13.88088326 -32.00328064 12.76486969 C-30.48607463 11.23766618 -28.96276465 9.71681332 -27.43783569 8.19732666 C-26.58794256 7.34558994 -25.73804943 6.49385323 -24.86240196 5.6163063 C-17.49583279 -1.03930193 -9.45968757 -4.39326314 0 0 Z " fill="#000000" transform="translate(175.3125,328.6875)"/>
<path d="M0 0 C1.90146286 -0.01073296 1.90146286 -0.01073296 3.84133911 -0.02168274 C7.29810665 -0.04010764 10.75409725 -0.02731659 14.21083188 -0.00759244 C17.83904407 0.00886635 21.46720984 -0.00002867 25.09544373 -0.00511169 C31.18566208 -0.00962406 37.27557244 0.00618502 43.36572266 0.03417969 C50.3948148 0.06624239 57.42335211 0.06620765 64.45248371 0.04896492 C71.23139779 0.0330724 78.01010953 0.03984987 84.78901482 0.05690193 C87.66647707 0.063753 90.54377619 0.06276018 93.42123604 0.05535698 C97.4425931 0.04623605 101.46310079 0.07028769 105.484375 0.09765625 C106.67158646 0.09113037 107.85879791 0.08460449 109.08198547 0.07788086 C115.67112405 0.1540801 119.84092248 0.65582214 125.17749023 4.63110352 C129.18880034 8.959096 130.2973566 12.0914033 130.33139038 17.91130066 C130.33999084 19.00611755 130.34859131 20.10093445 130.35745239 21.22892761 C130.36384232 23.03131645 130.36384232 23.03131645 130.37036133 24.87011719 C130.38262756 26.76807541 130.38262756 26.76807541 130.3951416 28.70437622 C130.42133522 32.90258664 130.43666843 37.10080688 130.45092773 41.29907227 C130.45628886 42.74607156 130.46166637 44.19307079 130.46706009 45.64006996 C130.48868658 51.66131699 130.50742142 57.68256137 130.51868248 63.70383739 C130.53490972 72.32293392 130.56805974 80.94157881 130.62508333 89.56050509 C130.66383984 95.62603319 130.68332199 101.6914408 130.68860304 107.75708944 C130.69224929 111.37702943 130.70419155 114.99648743 130.73670578 118.61629295 C130.77250252 122.65950543 130.76840118 126.70175293 130.76098633 130.74511719 C130.77739166 131.93658859 130.793797 133.12806 130.81069946 134.3556366 C130.75879858 141.27441427 130.01818502 146.42643468 125.17749023 151.63110352 C119.61522755 155.77995782 113.98755688 156.54828421 107.17749023 155.63110352 C101.73230293 153.85094613 98.39522631 150.24284251 95.17749023 145.63110352 C93.99302139 142.07769699 94.0018027 138.83027904 93.97216797 135.13037109 C93.96226837 134.36915451 93.95236877 133.60793793 93.94216919 132.82365417 C93.91058295 130.30767934 93.88580814 127.79168562 93.86108398 125.27563477 C93.84051197 123.5311382 93.81951543 121.78664659 93.79811096 120.04216003 C93.74291582 115.45057185 93.69349525 110.85893886 93.64526367 106.26727295 C93.59503 101.58186862 93.53935367 96.89652935 93.48413086 92.21118164 C93.37658056 83.01787784 93.27512861 73.82451755 93.17749023 64.63110352 C92.60157104 65.20978809 92.02565184 65.78847267 91.43228054 66.38469315 C77.41018511 80.47307815 63.37976444 94.55312442 49.34006405 108.62396622 C42.55073669 115.42875409 35.7642422 122.23632261 28.984375 129.05053711 C23.07416678 134.99067253 17.15868155 140.92549313 11.23683363 146.8540256 C8.10224442 149.99252141 4.97033816 153.13359196 1.84473991 156.28104401 C-1.09947116 159.24567258 -4.05070706 162.20312392 -7.00739288 165.15530968 C-8.08912024 166.23785988 -9.16829462 167.32296836 -10.24464989 168.41086006 C-22.53806233 180.82949722 -22.53806233 180.82949722 -29.84985352 182.19750977 C-36.75337559 182.18824329 -41.68309276 181.47401569 -46.82250977 176.63110352 C-50.94161543 171.58519908 -51.3218296 167.30415132 -51.54907227 160.88891602 C-49.39132197 151.21384211 -40.74976186 144.14384245 -33.9519043 137.41992188 C-32.85679202 136.32565744 -31.76234312 135.23072877 -30.66850281 134.13519287 C-27.71901734 131.18485216 -24.76042255 128.24380645 -21.80001688 125.30442882 C-18.69964135 122.22289906 -15.60784738 119.13278276 -12.5151062 116.04359436 C-6.66705233 110.20483784 -0.81139841 104.37376628 5.04707253 98.5454641 C11.72051198 91.9056408 18.38536145 85.2572233 25.04952788 78.60809505 C38.7493592 64.93956039 52.4598604 51.28177448 66.17749023 37.63110352 C65.21362396 37.62523727 64.24975769 37.61937103 63.25668335 37.61332703 C54.16381244 37.55606179 45.07117981 37.4832803 35.97855186 37.3953886 C31.30415961 37.35070121 26.62985418 37.31144148 21.95532227 37.28466797 C17.44235102 37.25861873 12.92971419 37.21820484 8.41695023 37.16791725 C6.69706005 37.1512595 4.97711205 37.13973842 3.25715256 37.13348961 C0.84401313 37.12383652 -1.56827285 37.0957638 -3.98120117 37.06347656 C-4.68898712 37.06491165 -5.39677307 37.06634674 -6.12600708 37.06782532 C-11.57548987 36.96500956 -15.65385649 35.6315384 -19.68579102 31.91235352 C-20.1640332 31.32454102 -20.64227539 30.73672852 -21.13500977 30.13110352 C-21.62614258 29.54329102 -22.11727539 28.95547852 -22.62329102 28.34985352 C-25.68870356 23.95642838 -25.34667722 18.75123202 -24.82250977 13.63110352 C-23.27514006 7.93441758 -20.31156017 4.62653169 -15.30342293 1.65666389 C-10.37961652 -0.37874018 -5.25279941 -0.05182032 0 0 Z " fill="#000000" transform="translate(381.822509765625,-0.631103515625)"/>
<path d="M0 0 C1.09481689 -0.00860046 2.18963379 -0.01720093 3.31762695 -0.02606201 C4.51921951 -0.03032196 5.72081207 -0.03458191 6.95881653 -0.03897095 C8.85677475 -0.05123718 8.85677475 -0.05123718 10.79307556 -0.06375122 C14.99128598 -0.08994483 19.18950622 -0.10527805 23.38777161 -0.11953735 C24.8347709 -0.12489848 26.28177013 -0.13027599 27.7287693 -0.13566971 C33.75001633 -0.1572962 39.77126071 -0.17603104 45.79253674 -0.1872921 C54.41163326 -0.20351934 63.03027815 -0.23666936 71.64920443 -0.29369295 C77.71473253 -0.33244946 83.78014014 -0.35193161 89.84578878 -0.35721266 C93.46572877 -0.36085891 97.08518677 -0.37280117 100.70499229 -0.4053154 C104.74820477 -0.44111214 108.79045227 -0.4370108 112.83381653 -0.42959595 C114.62102364 -0.45420395 114.62102364 -0.45420395 116.44433594 -0.47930908 C123.36311361 -0.4274082 128.51513402 0.31320536 133.71980286 5.15390015 C137.86865716 10.71616283 138.63698355 16.3438335 137.71980286 23.15390015 C135.93964547 28.59908745 132.33154186 31.93616407 127.71980286 35.15390015 C124.16639634 36.33836899 120.91897838 36.32958768 117.21907043 36.35922241 C116.45785385 36.36912201 115.69663727 36.37902161 114.91235352 36.38922119 C112.39637868 36.42080743 109.88038496 36.44558224 107.36433411 36.4703064 C105.61983754 36.49087841 103.87534593 36.51187495 102.13085938 36.53327942 C97.53927119 36.58847457 92.9476382 36.63789513 88.35597229 36.68612671 C83.67056796 36.73636038 78.98522869 36.79203671 74.29988098 36.84725952 C65.10657718 36.95480982 55.9132169 37.05626177 46.71980286 37.15390015 C47.29848743 37.72981935 47.87717201 38.30573854 48.47339249 38.89910984 C62.56177749 52.92120527 76.64182376 66.95162594 90.71266556 80.99132633 C97.51745343 87.78065369 104.32502195 94.56714818 111.13923645 101.34701538 C117.07937188 107.2572236 123.01419247 113.17270883 128.94272494 119.09455675 C132.08122075 122.22914596 135.2222913 125.36105222 138.36974335 128.48665047 C141.33437192 131.43086155 144.29182326 134.38209744 147.24400902 137.33878326 C148.32655922 138.42051062 149.4116677 139.499685 150.4995594 140.57604027 C162.91819656 152.86945271 162.91819656 152.86945271 164.28620911 160.1812439 C164.27694263 167.08476597 163.56271503 172.01448314 158.71980286 177.15390015 C153.67389842 181.27300581 149.39285066 181.65321998 142.97761536 181.88046265 C133.30254145 179.72271235 126.23254179 171.08115224 119.50862122 164.28329468 C118.41435678 163.1881824 117.31942811 162.09373351 116.22389221 160.99989319 C113.2735515 158.05040772 110.33250579 155.09181293 107.39312816 152.13140726 C104.3115984 149.03103173 101.2214821 145.93923776 98.1322937 142.84649658 C92.29353718 136.99844271 86.46246562 131.1427888 80.63416344 125.28431785 C73.99434014 118.6108784 67.34592264 111.94602893 60.69679439 105.2818625 C47.02825973 91.58203118 33.37047382 77.87152998 19.71980286 64.15390015 C19.71393661 65.11776642 19.70807037 66.08163269 19.70202637 67.07470703 C19.64476113 76.16757794 19.57197964 85.26021057 19.48408794 94.35283852 C19.43940055 99.02723077 19.40014082 103.7015362 19.37336731 108.37606812 C19.34731807 112.88903936 19.30690418 117.40167619 19.25661659 121.91444016 C19.23995884 123.63433033 19.22843776 125.35427833 19.22218895 127.07423782 C19.21253586 129.48737725 19.18446314 131.89966323 19.1521759 134.31259155 C19.15361099 135.0203775 19.15504608 135.72816345 19.15652466 136.45739746 C19.0537089 141.90688025 17.72023774 145.98524687 14.00105286 150.0171814 C13.41324036 150.49542358 12.82542786 150.97366577 12.21980286 151.46640015 C11.63199036 151.95753296 11.04417786 152.44866577 10.43855286 152.9546814 C6.04512772 156.02009394 0.83993136 155.6780676 -4.28019714 155.15390015 C-9.97688308 153.60653044 -13.28476897 150.64295055 -16.25463676 145.63481331 C-18.29004084 140.7110069 -17.96312098 135.58418979 -17.91130066 130.33139038 C-17.92203362 128.42992752 -17.92203362 128.42992752 -17.9329834 126.49005127 C-17.9514083 123.03328373 -17.93861725 119.57729313 -17.9188931 116.1205585 C-17.90243431 112.49234631 -17.91132933 108.86418054 -17.91641235 105.23594666 C-17.92092472 99.1457283 -17.90511564 93.05581794 -17.87712097 86.96566772 C-17.84505827 79.93657558 -17.84509301 72.90803827 -17.86233574 65.87890667 C-17.87822826 59.09999259 -17.87145078 52.32128085 -17.85439873 45.54237556 C-17.84754766 42.66491331 -17.84854048 39.78761419 -17.85594368 36.91015434 C-17.86506461 32.88879728 -17.84101296 28.86828959 -17.81364441 24.84701538 C-17.82017029 23.65980392 -17.82669617 22.47259247 -17.8334198 21.24940491 C-17.75722056 14.66026633 -17.25547852 10.4904679 -13.28019714 5.15390015 C-8.95220466 1.14259004 -5.81989736 0.03403378 0 0 Z " fill="#000000" transform="translate(17.280197143554688,-0.153900146484375)"/>
</svg>
